<?xml version="1.0" encoding="utf-8"?>
<!-- Generator: Adobe Illustrator 12.0.0, SVG Export Plug-In . SVG Version: 6.00 Build 51448)  -->
<!DOCTYPE svg PUBLIC "-//W3C//DTD SVG 1.1//EN" "http://www.w3.org/Graphics/SVG/1.1/DTD/svg11.dtd" [
	<!ENTITY ns_svg "http://www.w3.org/2000/svg">
	<!ENTITY ns_xlink "http://www.w3.org/1999/xlink">
]>
<svg  version="1.1" id="Layer_1" xmlns="&ns_svg;" xmlns:xlink="&ns_xlink;" width="711.102" height="71.085"
	 viewBox="0 0 711.102 71.085" overflow="visible" enable-background="new 0 0 711.102 71.085" xml:space="preserve">
<path fill-rule="evenodd" clip-rule="evenodd" fill="#CB2027" d="M33.299,34.811H39c2.899-0.31,5.7-0.21,8.799-3.3
	c1.6-2.12,2.6-4.37,1.301-6.7c-1.9-2.371-4.301-2.19-6.6-2.311h-5.4L33.299,34.811 M60.899,70.231h-27.1L29.1,51.671h-0.801
	L22.7,70.241H0L14.299,23.21H8.5L20.399,3.02C30.2,3.051,40,2.93,49.7,3.11c5.9,0.39,11.699,0.421,17.8,4.93
	c5,4.251,6,8.961,5.899,13.63C73.1,27.261,71.1,32.941,66.6,38.721c-1.5,1.67-3,3.33-4.701,4.77c-1.6,1.43-3.5,2.63-5.398,3.83
	c-1.202,0.67-2.5,1.31-3.801,1.92L60.899,70.231z"/>
<polyline fill-rule="evenodd" clip-rule="evenodd" fill="#CB2027" points="110.299,70.221 66.6,70.231 80.899,23.201 75.2,23.201 
	87,3.011 116.5,3.011 118,0.591 139,0.581 125.7,23.191 103.5,23.201 101.899,28.541 128.7,28.541 119.399,44.081 97.2,44.091 
	95.399,49.941 122.2,49.941 110.299,70.221 "/>
<polyline fill-rule="evenodd" clip-rule="evenodd" fill="#CB2027" points="146.299,70.221 123.799,70.221 138.1,23.191 
	132.2,23.191 144.2,3.011 166.7,3.001 146.299,70.221 "/>
<path fill-rule="evenodd" clip-rule="evenodd" fill="#CB2027" d="M185.6,50.131c4.4-0.19,8.9-0.87,13.4-3.95
	c5.1-3.86,6.7-8.24,7.299-12.51c0.1-2.39,0.1-4.77-2.4-7.331c-3.299-2.789-6.7-3.029-10.1-3.159L185.6,50.131 M156.799,70.221
	l14.301-47.03h-5.801L177.2,3.001c9.5,0.11,18.9-0.391,28.3,0.64c3.799,0.51,7.6,1.489,11.299,2.989
	c2.1,0.871,4.1,2.011,6.099,3.501c5.301,4.39,7.001,9.28,7.602,14.13c0.399,4.53-0.201,8.93-1.9,13.52c-1,2.81-2.6,5.88-4.401,8.73
	c-1.099,1.67-2.4,3.24-3.699,4.8c-1.5,1.64-3,3.27-4.601,4.76c-1.6,1.48-3.399,2.8-5.2,4.13c-2.3,1.47-4.599,2.94-7,4.15
	c-2.4,1.21-4.9,2.17-7.5,3.13c-7.699,2.571-15.5,2.65-23.3,2.731L156.799,70.221z"/>
<polyline fill-rule="evenodd" clip-rule="evenodd" fill="#CB2027" points="252.899,70.201 229.7,70.211 239.1,39.521 228.2,2.991 
	253.799,2.991 256.799,18.431 269.399,2.991 294.799,2.981 262.2,39.521 252.899,70.201 "/>
<polyline fill-rule="evenodd" clip-rule="evenodd" fill="#CB2027" points="299.399,31.041 291.1,31.041 296.501,2.981 
	311.001,2.981 299.399,31.041 "/>
<path fill-rule="evenodd" clip-rule="evenodd" fill="#CB2027" d="M294.7,65.451l11.599-19.48c6.301,3.93,12.6,6.28,19,5.889
	c1.701-0.27,3.5-0.44,5.201-2.659c0.6-1.141,1-2.46-0.5-3.571c-5-2.739-10.201-3.079-15.301-5.679c-2.099-1.08-4.4-2.35-6.599-4.98
	c-3.701-4.971-2.6-10.261-0.301-15.611c1.301-2.869,3.5-5.809,6.5-8.539c1.4-1.25,2.801-2.391,4.4-3.401
	c5-3.17,10.199-4.76,15.5-5.32C338.1,1.8,342.1,2.22,346,2.98l1.6-2.929L367,2.97l-12.301,20.69c-6.9-2.96-13.699-6.06-20.8-3.459
	c-1,0.409-2.6,1.6-2.6,2.969c-0.1,0.651,0.201,1.43,1.099,2.04c0.602,0.35,1.202,0.601,1.801,0.781
	c5.401,1.73,10.801,2.5,16.401,6.57c1.199,0.99,2.699,2.52,3.5,3.87c2.9,4.969,1.799,10.379-0.5,15.589
	c-1,2.221-2.4,4.38-4.201,6.451c-2,2.3-4.1,4.15-6.398,5.71c-2.702,1.82-5.602,3.23-8.5,4.31c-2.401,0.77-4.901,1.54-7.401,1.97
	c-9,1.37-18.301,0.54-27.4-3.021C298,66.801,296.299,66.141,294.7,65.451"/>
<path fill-rule="evenodd" clip-rule="evenodd" fill="#CB2027" d="M396.7,65.441l11.599-19.48c6.302,3.93,12.601,6.27,18.901,5.89
	c1.699-0.28,3.599-0.44,5.3-2.67c0.601-1.13,1-2.46-0.601-3.571c-4.899-2.74-10.101-3.07-15.299-5.68
	c-2.101-1.08-4.302-2.35-6.5-4.98c-3.701-4.96-2.601-10.26-0.401-15.6c1.401-2.87,3.5-5.81,6.5-8.55
	c1.401-1.25,2.901-2.381,4.5-3.391c4.9-3.18,10.199-4.76,15.5-5.33c3.901-0.29,7.801,0.13,11.801,0.88l1.601-2.93l19.299,2.93
	l-12.2,20.69c-7-2.96-13.699-6.06-20.9-3.46c-0.899,0.41-2.5,1.59-2.6,2.96c0,0.65,0.2,1.43,1.2,2.04c0.601,0.35,1.201,0.6,1.8,0.78
	c5.401,1.74,10.801,2.51,16.301,6.581c1.299,0.989,2.799,2.51,3.501,3.86c3,4.97,1.898,10.38-0.4,15.59
	c-1.1,2.23-2.4,4.39-4.201,6.46c-2,2.3-4.199,4.14-6.398,5.7c-2.801,1.83-5.602,3.24-8.5,4.32c-2.5,0.77-4.9,1.53-7.5,1.97
	c-8.9,1.36-18.202,0.53-27.4-3.02c-1.6-0.64-3.301-1.301-4.9-1.991"/>
<polyline fill-rule="evenodd" clip-rule="evenodd" fill="#CB2027" points="478.601,70.171 456.101,70.171 470.299,23.141 
	464.5,23.141 476.5,2.961 499,2.951 478.601,70.171 "/>
<path fill-rule="evenodd" clip-rule="evenodd" fill="#CB2027" d="M573.899,28.171c-2,6.03-3.699,11.98-7.699,18.09
	c-0.801,1.19-1.6,2.35-2.401,3.51c-1.6,2.05-3.198,4.1-5.1,5.92c-1.801,1.82-3.9,3.4-5.9,4.99c-2.4,1.55-4.799,3.09-7.199,4.371
	c-2.5,1.279-5.201,2.299-7.802,3.319c-2.599,0.77-5.099,1.54-7.698,1.99c-2.601,0.45-5.302,0.58-8,0.711
	c-6.101-0.051-12.302-1.06-18.802-4.981c-1.198-0.789-2.299-1.73-3.5-2.67c-7.5-7.17-8.6-14.85-7.4-22.67
	c0.801-4.61,2.702-9.59,5.702-14.2c1.198-1.75,2.399-3.49,3.799-5.111c1.3-1.609,2.899-3.1,4.399-4.589
	c2.302-2.09,4.701-4,7.302-5.7c2.6-1.7,5.299-3.19,8.1-4.45c5.099-2.301,10.5-3.75,15.8-4.45c3-0.311,6-0.38,9.101-0.2
	c2,0.15,4.1,0.6,6.1,1.1l2.699-1.82l14.201,9.38l-21.701,15.35c-5.199-4.17-10.601-4.61-16.101-3.26
	c-2.599,0.76-5.198,1.91-7.599,3.64c-1.1,0.84-2.2,1.68-3.1,2.66c-1.5,1.59-2.802,3.44-3.601,5.16c-1.8,4.12-2.601,8.25,1,12.7
	c4.5,4.38,9.399,4.24,14.199,3.6c3.401-0.48,7.1-2.43,10.501-5.53h-13.6l9.799-16.85L573.899,28.171"/>
<polyline fill-rule="evenodd" clip-rule="evenodd" fill="#CB2027" points="631.5,70.151 611.699,70.151 599.299,37.351 
	589.299,70.151 567.101,70.161 581.398,23.131 575.601,23.131 587.5,2.941 611.299,2.941 621.399,29.881 629.601,2.931 
	651.899,2.931 631.5,70.151 "/>
<path fill-rule="evenodd" clip-rule="evenodd" fill="#CB2027" d="M638.899,65.401l11.601-19.48c6.299,3.93,12.601,6.27,19.001,5.89
	c1.699-0.27,3.499-0.44,5.199-2.67c0.599-1.13,1-2.45-0.5-3.56c-5-2.741-10.2-3.08-15.301-5.69c-2.101-1.07-4.399-2.34-6.601-4.971
	c-3.698-4.969-2.599-10.26-0.299-15.61c1.299-2.87,3.399-5.81,6.399-8.54c1.399-1.25,2.899-2.39,4.5-3.4
	c5-3.17,10.201-4.76,15.5-5.32c3.9-0.3,7.9,0.12,11.801,0.88L691.8,0l19.302,2.92l-12.202,20.69
	c-6.898-2.96-13.699-6.06-20.898-3.46c-0.9,0.41-2.5,1.6-2.602,2.97c0,0.65,0.201,1.43,1.201,2.04c0.6,0.34,1.198,0.6,1.799,0.78
	c5.4,1.73,10.801,2.5,16.301,6.571c1.301,0.989,2.801,2.51,3.6,3.869c2.9,4.971,1.802,10.381-0.5,15.58
	c-1.1,2.23-2.4,4.391-4.199,6.46c-2,2.301-4.201,4.151-6.4,5.71c-2.801,1.821-5.6,3.231-8.5,4.31c-2.5,0.77-4.901,1.54-7.401,1.971
	c-9,1.359-18.298,0.529-27.5-3.021C642.2,66.75,640.501,66.09,638.899,65.401"/>
<path fill-rule="evenodd" clip-rule="evenodd" fill="#FFFFFF" d="M14.1,20.021h4.5L4.299,67.051h16L26,48.481h5.6l4.699,18.57
	l19.901-0.01l-7.5-19.4c3.099-1.56,6.3-2.801,9.599-5.331c1.1-0.81,2.1-1.689,3.1-2.62c0.901-0.94,1.901-1.929,2.701-2.98
	c1.1-1.46,2.2-2.929,3.001-4.52c2.799-5.489,4.4-11.199,2-17.02c-0.702-1.54-1.6-3.04-3.6-4.62c-6.4-4.66-13.201-4.07-19.9-4.34
	H22.3L14.1,20.021 M11.5,21.481l9.899-16.72c9.4,0.02,18.8-0.1,28.3,0.079c5.5,0.381,11,0.33,16.7,4.56
	c4.5,3.81,5.4,8.02,5.301,12.201c-0.301,5.25-2.2,10.6-6.5,16.029c-1.401,1.581-2.801,3.171-4.401,4.531
	c-1.599,1.36-3.299,2.51-5.099,3.65c-1.699,0.91-3.401,1.74-5.199,2.56l7.898,20.13H35.1l-4.599-18.57h-3.5l-5.602,18.57l-19,0.01
	L16.6,21.481H11.5z"/>
<path fill-rule="evenodd" clip-rule="evenodd" fill="#FFFFFF" d="M31,36.541h8.1c3.299-0.34,6.4-0.29,10-3.89
	c2.099-2.66,3-5.48,1.699-8.4c-0.9-1.82-2.699-2.61-4.199-3.01c-1.301-0.37-2.701-0.47-4.1-0.47h-6.701L31,36.541 M29,38.001
	l5.7-18.69c3.4,0.05,6.8-0.15,10.199,0.13c2.201,0.38,4.301,0.51,6.601,3.24c2.2,2.99,1.6,6.24-0.3,9.51
	c-0.699,1.29-2.301,2.85-3.699,3.63c-2.702,1.599-5.602,2.01-8.401,2.18H29z"/>
<path fill-rule="evenodd" clip-rule="evenodd" fill="#FFFFFF" d="M80.7,20.011h4.5l-14.301,47.03l37.601-0.01l8.1-13.901H91.1
	l3.699-12.229H117.6l5.4-9.17H97.6l3.599-11.72l22.699-0.01l9.5-16.23l-13.599,0.01l-1.5,2.42h-29.5L80.7,20.011 M78.2,21.471
	L88,4.75l29.5-0.009l1.5-2.42h16.899L124.7,21.461h-22.5l-2.6,8.82l26-0.011l-7.201,12.081l-22.5,0.009L93.1,51.671h26l-9.801,16.82
	l-40.4,0.01l14.3-47.03H78.2z"/>
<path fill-rule="evenodd" clip-rule="evenodd" fill="#FFFFFF" d="M137.799,20.001h4.6L128.1,67.031h15.901l18.398-60.84H146
	L137.799,20.001 M135.299,21.461l9.901-16.72h19.199L145,68.491h-18.9l14.299-47.03H135.299z"/>
<path fill-rule="evenodd" clip-rule="evenodd" fill="#FFFFFF" d="M170.899,20.001h4.5L161.1,67.031c10.4-0.16,20.6,0.63,31-1.67
	c1.1-0.26,2.1-0.58,3.1-0.9c2.4-0.91,4.801-1.82,7.1-2.96c2.301-1.15,4.4-2.54,6.599-3.93c1.701-1.25,3.301-2.49,4.901-3.88
	c1.5-1.39,2.9-2.93,4.3-4.46c2.6-2.99,4.5-6.11,6.1-9.34c3.199-6.82,4.6-13.74,1.6-20.85c-0.6-1.54-1.6-3.08-2.901-4.55
	c-3.898-4.09-8.199-5.39-12.398-6.66c-6.102-1.55-12.301-1.59-18.5-1.641H179.1L170.899,20.001 M168.299,21.451l9.901-16.72
	c9,0.1,18.099-0.371,27.099,0.64c3.701,0.49,7.301,1.42,10.901,2.86c1.9,0.81,3.8,1.87,5.599,3.26c4.801,4.02,6.4,8.5,7,12.95
	c0.599,5.27-0.7,10.76-3.2,16.08c-0.9,1.721-1.801,3.431-2.9,5.04c-1,1.61-2.301,3.11-3.5,4.621c-1.401,1.58-2.901,3.17-4.5,4.6
	c-1.5,1.429-3.301,2.71-5,3.99c-2.199,1.43-4.401,2.859-6.699,4.03c-2.401,1.179-4.901,2.11-7.301,3.039
	c-7.5,2.501-15.2,2.551-22.801,2.641h-13.699l14.199-47.03L168.299,21.451z"/>
<path fill-rule="evenodd" clip-rule="evenodd" fill="#FFFFFF" d="M183.2,51.921c5.599-0.06,11.099-0.45,16.8-4.33
	c1.899-1.39,3.299-2.91,4.5-4.53c2.399-3.44,3.5-7.07,3.6-10.71c-0.1-2.36-0.5-4.741-3-7.261c-4.1-3.48-8.4-3.63-12.6-3.65
	L183.2,51.921 M181.2,53.421l10.199-33.44c4.5,0,8.9-0.03,13.5,3.1c1.101,0.74,2.301,2.069,3,3.29
	c2.701,4.67,1.801,9.48-0.399,14.51c-0.499,1.04-1.201,2.02-1.8,3.01c-0.699,0.92-1.401,1.84-2.199,2.66
	c-3.102,2.97-6.201,4.49-9.401,5.48C189.8,53.311,185.501,53.331,181.2,53.421z"/>
<path fill-rule="evenodd" clip-rule="evenodd" fill="#FFFFFF" d="M250.5,67.011l8.799-29.09L287.6,6.171l-16.701,0.01l-16,19.56
	L251.2,6.181h-18.699l9.898,33.35l-8.299,27.49L250.5,67.011 M251.6,68.471h-19.5l8.799-28.94L230.5,4.731l21.899-0.01l3.4,17.68
	L270.2,4.721h20.699L260.6,38.651L251.6,68.471z"/>
<path fill-rule="evenodd" clip-rule="evenodd" fill="#FFFFFF" d="M297.299,27.851l9-21.68H299.1l-4.201,21.68H297.299
	 M298.299,29.311H293.2l4.699-24.59l10.5-0.011L298.299,29.311z"/>
<path fill-rule="evenodd" clip-rule="evenodd" fill="#FFFFFF" d="M299.299,63.901c6.702,2.72,13.401,4.08,20.1,4.01
	c2.4-0.09,4.801-0.19,7.102-0.59c2.398-0.4,4.699-1.11,6.898-1.83c2.701-0.99,5.301-2.28,7.801-3.95c2-1.4,4-3.06,5.8-5.14
	c4.001-4.81,6.1-9.94,5.501-15.05c-0.202-1.73-0.901-3.51-2.801-5.3c-3.199-2.9-6.5-4.03-9.9-5.09c-2.6-0.79-5.1-1.43-7.799-2.371
	c-1.301-0.489-3.301-2.089-3.602-3.509c-0.699-1.891-0.398-3.871,1.5-5.92C333.8,15.59,338.2,15.86,342.4,16.25
	c3.701,0.4,7.4,1.9,10.999,3.37l8.4-14.2l-12.5-1.88l-1.6,3.05c-7.5-1.69-14.9-2.32-22.699,1.12c-1.601,0.68-3.101,1.48-4.5,2.4
	c-2.301,1.451-4.301,3.051-6.4,5.461c-2.201,2.599-3.701,5.15-4.4,7.809c-0.901,3.75-2.1,7.511,2.999,11.671
	c6,4.36,12.199,4.349,18.401,7.53c1.4,0.64,3.099,2.689,3.099,4.319c0.1,1.75-0.301,3.541-2.099,5.421
	c-2.6,2.3-5.301,2.73-8.001,2.79c-5.599-0.01-11.099-1.72-16.701-4.78L299.299,63.901 M297.2,64.621l9.699-16.26
	c6.201,3.61,12.3,5.6,18.601,5.23c2-0.3,4-0.59,6.099-2.88c1.299-1.89,1.901-3.86,0.001-5.97c-2.801-2.27-5.901-2.7-8.801-3.67
	c-4.199-1.31-8.2-2.26-12.6-6.28c-4.199-4.63-2.9-9.661-0.801-14.691c1.201-2.68,3.201-5.439,6-7.99
	c1.301-1.19,2.801-2.27,4.301-3.23c4.699-3.009,9.699-4.52,14.599-5.059c4.202-0.31,8.501,0.24,12.6,1.11l1.701-2.99l15.6,2.36
	l-10.2,17.16c-7-2.94-13.701-5.6-20.9-2.83c-1,0.49-2.1,1.16-3,2.56c-0.901,1.73-1.1,3.72,1.4,5.5c0.699,0.43,1.5,0.74,2.299,0.96
	c5.099,1.69,10.4,2.381,15.701,6.29c1.5,1.141,3.1,3.041,3.699,4.591c1.801,4.11,0.801,8.5-1.1,12.75c-1,2.09-2.3,4.12-4,6.07
	c-1.9,2.17-3.9,3.92-6.099,5.39c-2.602,1.74-5.301,3.09-8.102,4.12c-2.298,0.74-4.699,1.479-7.099,1.9
	c-9.2,1.41-18.7,0.37-28.1-3.53c-0.5-0.2-1-0.41-1.5-0.61L297.2,64.621z"/>
<path fill-rule="evenodd" clip-rule="evenodd" fill="#FFFFFF" d="M401.299,63.891c6.702,2.71,13.401,4.07,20.101,4.01
	c2.399-0.1,4.801-0.19,7.102-0.59c2.298-0.41,4.6-1.12,6.898-1.83c2.701-0.99,5.301-2.28,7.801-3.96c2-1.4,4-3.06,5.8-5.15
	c4.001-4.8,6-9.93,5.501-15.04c-0.301-1.72-1-3.5-2.801-5.29c-3.199-2.9-6.599-4.04-9.9-5.09c-2.6-0.79-5.1-1.43-7.799-2.38
	c-1.4-0.49-3.301-2.09-3.701-3.511c-0.6-1.89-0.4-3.87,1.5-5.92c4-3.56,8.302-3.3,12.601-2.9c3.601,0.4,7.399,1.89,10.999,3.36
	l8.4-14.19l-12.5-1.89l-1.6,3.06c-7.5-1.69-15-2.33-22.8,1.12c-1.5,0.67-3,1.47-4.5,2.39c-2.199,1.46-4.199,3.05-6.398,5.46
	c-2.102,2.6-3.602,5.16-4.4,7.82c-0.9,3.74-2.101,7.509,3.1,11.66c6,4.36,12.199,4.35,18.4,7.53c1.299,0.64,3,2.7,3.099,4.32
	c0.1,1.75-0.3,3.55-2.199,5.43c-2.5,2.3-5.301,2.73-8,2.79c-5.5-0.01-11.102-1.72-16.602-4.78L401.299,63.891 M399.2,64.601
	l9.699-16.25c6.101,3.61,12.3,5.6,18.5,5.22c1.999-0.29,3.999-0.58,6.101-2.87c1.299-1.9,2-3.87,0.101-5.98
	c-2.9-2.27-5.9-2.701-8.9-3.661c-4.1-1.31-8.2-2.259-12.501-6.279c-4.199-4.631-3-9.661-0.9-14.701c1.302-2.68,3.302-5.43,6.1-7.99
	c1.301-1.19,2.702-2.269,4.202-3.22c4.698-3.02,9.698-4.52,14.698-5.06c4.201-0.32,8.4,0.23,12.6,1.101L450.5,1.93l15.6,2.36
	L456,21.44c-7-2.929-13.801-5.59-20.9-2.82c-1,0.49-2.201,1.161-3,2.561c-0.9,1.73-1.201,3.71,1.399,5.5c0.7,0.43,1.5,0.74,2.2,0.96
	c5.199,1.69,10.4,2.38,15.8,6.28c1.5,1.15,3.101,3.05,3.7,4.6c1.699,4.11,0.699,8.5-1.2,12.75c-1,2.09-2.301,4.11-3.899,6.06
	c-1.9,2.17-4,3.92-6.101,5.4c-2.601,1.74-5.3,3.09-8.101,4.12c-2.399,0.74-4.699,1.471-7.199,1.891c-9.1,1.419-18.7,0.369-28-3.531
	C400.199,65.011,399.699,64.811,399.2,64.601L399.2,64.601z"/>
<path fill-rule="evenodd" clip-rule="evenodd" fill="#FFFFFF" d="M470.101,19.951h4.5l-14.201,47.03H476.2l18.5-60.84l-16.401,0.01
	L470.101,19.951 M467.5,21.411L477.501,4.69H496.7l-19.401,63.75h-18.899L472.7,21.411H467.5z"/>
<path fill-rule="evenodd" clip-rule="evenodd" fill="#FFFFFF" d="M569.5,31.361l-28.3,0.01l-6.1,10.47h16.299l-6.101,5.54
	c-3.899,3.55-8,5.72-12,6.33c-3.5,0.55-6.899,0.49-10.5-0.49c-2.198-0.73-4.399-1.68-6.599-4.13c-4.301-5.1-4.1-10.65-1.6-16.2
	c1.1-2.28,2.799-4.71,5.299-7.08c2.201-1.98,4.301-3.27,6.601-4.42c4.799-2.22,9.799-2.99,14.899-2.01c2.201,0.47,4.4,1.41,6.5,2.77
	l16.102-11.35l-8.602-5.64l-2.1,1.44c-5.1-1.55-10.299-1.68-15.4-1.19c-2.199,0.26-4.398,0.76-6.6,1.27
	c-2.799,0.75-5.6,1.73-8.299,2.93c-2.702,1.2-5.202,2.61-7.702,4.22c-2.399,1.61-4.698,3.41-6.899,5.39
	c-1.399,1.39-2.799,2.78-4.101,4.29c-1.299,1.51-2.4,3.14-3.6,4.78c-2.6,4.17-4.4,8.62-5.199,12.96
	c-0.801,5.77-0.5,11.63,4.499,17.801c1.601,1.909,3.299,3.17,5.101,4.36c7.9,4.77,16.1,5.06,24.4,3.81
	c2.5-0.42,4.898-1.14,7.199-1.861c2.5-0.97,5-1.93,7.4-3.14c2.4-1.22,4.6-2.68,6.799-4.14c2-1.49,3.9-2.97,5.602-4.66
	c2.699-2.73,5.101-5.9,7-8.86C566.5,40.181,567.899,35.801,569.5,31.361 M571.5,29.911c-1.8,5.13-3.3,10.2-6.801,15.43
	c-0.699,1.16-1.5,2.29-2.3,3.41c-1.5,1.98-3.101,3.95-4.899,5.7c-1.701,1.75-3.701,3.29-5.701,4.82c-2.299,1.5-4.6,3-7,4.24
	c-2.5,1.25-5,2.23-7.6,3.22c-2.401,0.75-4.901,1.49-7.401,1.92c-2.5,0.44-5.099,0.56-7.698,0.69c-5.802-0.05-11.701-1-17.802-4.71
	c-1.198-0.74-2.299-1.62-3.299-2.5c-7-6.67-8-13.83-6.9-21.11c0.799-4.38,2.6-9.13,5.4-13.53c1.199-1.68,2.399-3.37,3.699-4.92
	c1.301-1.56,2.801-3,4.2-4.43c2.301-2.03,4.601-3.88,7.101-5.531c2.5-1.65,5.2-3.099,7.899-4.329
	C527.298,6.06,532.6,4.64,537.699,3.97c2.9-0.3,5.801-0.36,8.699-0.2c2.201,0.161,4.399,0.69,6.602,1.251l2.398-1.61l11.102,7.35
	L547.898,23.92c-4.199-3.01-8.399-3.76-12.799-3.45c-2.5,0.251-5.302,1.02-8,2.231c-1.4,0.649-2.601,1.489-3.9,2.33
	c-1.2,0.909-2.301,1.819-3.301,2.869c-1.601,1.73-3.101,3.75-4,5.611c-1.899,4.329-2.601,8.67,0.3,13.29
	c0.801,1.219,2.301,2.659,3.6,3.44c5,2.98,10.201,2.849,15.401,1.53c4.199-1.061,8.4-4.661,12.4-8.47h-15l7.799-13.39H571.5z"/>
<path fill-rule="evenodd" clip-rule="evenodd" fill="#FFFFFF" d="M581.101,19.941h4.6l-14.301,47.03l15.5-0.01l12-39.47l15,39.47
	h15.201l18.5-60.84H632l-10.3,33.68l-12.6-33.671h-19.802L581.101,19.941 M578.601,21.391l9.899-16.72h21.601l11.5,30.6l9.299-30.6
	l18.701-0.01l-19.4,63.75l-17.301,0.01l-13.799-36.43l-11.1,36.43h-18.5l14.199-47.03H578.601z"/>
<path fill-rule="evenodd" clip-rule="evenodd" fill="#FFFFFF" d="M643.5,63.851c6.7,2.72,13.399,4.08,20.101,4.009
	c2.399-0.089,4.799-0.189,7.1-0.589c2.4-0.4,4.599-1.11,6.9-1.83c2.699-0.99,5.299-2.28,7.799-3.96c2-1.4,4-3.05,5.801-5.13
	c4-4.81,6.1-9.94,5.5-15.05c-0.301-1.73-1-3.51-2.801-5.301c-3.199-2.9-6.5-4.029-9.898-5.09c-2.602-0.79-5.102-1.43-7.801-2.37
	c-1.4-0.49-3.301-2.09-3.699-3.52c-0.602-1.88-0.301-3.86,1.5-5.92c4-3.56,8.299-3.29,12.601-2.9c3.698,0.4,7.399,1.89,11,3.37
	l8.4-14.2l-12.5-1.88L691.9,6.54c-7.5-1.69-15-2.32-22.799,1.12c-1.5,0.68-3,1.48-4.5,2.39c-2.201,1.46-4.201,3.06-6.302,5.46
	c-2.198,2.61-3.698,5.16-4.5,7.82c-0.798,3.741-2.099,7.51,3.101,11.67c6,4.36,12.201,4.35,18.4,7.52c1.4,0.65,3.1,2.7,3.1,4.33
	c0.102,1.75-0.299,3.541-2.199,5.42c-2.5,2.301-5.2,2.73-8,2.79c-5.5-0.009-11.1-1.72-16.6-4.779L643.5,63.851 M641.399,64.571
	l9.701-16.26c6.198,3.61,12.299,5.6,18.6,5.23c1.9-0.3,3.9-0.59,6-2.88c1.4-1.89,2-3.86,0.099-5.97
	c-2.799-2.271-5.899-2.71-8.899-3.67c-4.101-1.311-8.199-2.26-12.5-6.28c-4.199-4.631-2.899-9.66-0.899-14.7
	c1.299-2.681,3.299-5.431,6.101-7.98c1.299-1.19,2.698-2.27,4.198-3.23c4.802-3.01,9.701-4.521,14.701-5.061
	c4.2-0.31,8.399,0.23,12.601,1.11l1.6-2.989l15.6,2.359l-10.1,17.161c-7-2.94-13.699-5.601-20.901-2.83c-1,0.49-2.099,1.16-3,2.56
	c-0.899,1.73-1.198,3.72,1.401,5.5c0.699,0.43,1.5,0.74,2.301,0.96c5.1,1.69,10.398,2.38,15.699,6.29
	c1.5,1.141,3.099,3.04,3.699,4.59c1.701,4.11,0.701,8.5-1.101,12.75c-1.099,2.09-2.299,4.12-4,6.071
	c-1.899,2.169-3.899,3.92-6.099,5.389c-2.6,1.74-5.301,3.091-8.1,4.12c-2.4,0.74-4.701,1.48-7.101,1.89
	c-9.201,1.42-18.701,0.38-28.101-3.53C642.399,64.971,641.899,64.771,641.399,64.571z"/>
</svg>
