<?xml version="1.0" encoding="utf-8"?>
<!-- Generator: Adobe Illustrator 12.0.0, SVG Export Plug-In . SVG Version: 6.00 Build 51448)  -->
<!DOCTYPE svg PUBLIC "-//W3C//DTD SVG 1.1//EN" "http://www.w3.org/Graphics/SVG/1.1/DTD/svg11.dtd" [
	<!ENTITY ns_svg "http://www.w3.org/2000/svg">
	<!ENTITY ns_xlink "http://www.w3.org/1999/xlink">
]>
<svg  version="1.1" id="Layer_1" xmlns="&ns_svg;" xmlns:xlink="&ns_xlink;" width="816.96" height="110.953"
	 viewBox="0 0 816.96 110.953" overflow="visible" enable-background="new 0 0 816.96 110.953" xml:space="preserve">
<linearGradient id="XMLID_13_" gradientUnits="userSpaceOnUse" x1="37.2129" y1="4.8936" x2="36.3867" y2="71.0093">
	<stop  offset="0" style="stop-color:#FFFFFF"/>
	<stop  offset="0.4101" style="stop-color:#ED1C24"/>
	<stop  offset="0.7191" style="stop-color:#B5B5B5"/>
	<stop  offset="1" style="stop-color:#000000"/>
</linearGradient>
<path fill-rule="evenodd" clip-rule="evenodd" fill="url(#XMLID_13_)" d="M33.299,34.811H39c2.899-0.31,5.7-0.21,8.799-3.3
	c1.6-2.12,2.6-4.37,1.301-6.7c-1.9-2.371-4.301-2.19-6.6-2.311h-5.4L33.299,34.811 M60.899,70.231h-27.1L29.1,51.671h-0.801
	L22.7,70.241H0L14.299,23.21H8.5L20.399,3.02C30.2,3.051,40,2.93,49.7,3.11c5.9,0.39,11.699,0.421,17.8,4.93
	c5,4.251,6,8.961,5.899,13.63C73.1,27.261,71.1,32.941,66.6,38.721c-1.5,1.67-3,3.33-4.701,4.77c-1.6,1.43-3.5,2.63-5.398,3.83
	c-1.202,0.67-2.5,1.31-3.801,1.92L60.899,70.231z"/>
<linearGradient id="XMLID_14_" gradientUnits="userSpaceOnUse" x1="103.1709" y1="5.7178" x2="102.3447" y2="71.8335">
	<stop  offset="0" style="stop-color:#FFFFFF"/>
	<stop  offset="0.4101" style="stop-color:#ED1C24"/>
	<stop  offset="0.7191" style="stop-color:#B5B5B5"/>
	<stop  offset="1" style="stop-color:#000000"/>
</linearGradient>
<polyline fill-rule="evenodd" clip-rule="evenodd" fill="url(#XMLID_14_)" points="110.299,70.221 66.6,70.231 80.899,23.201 
	75.2,23.201 87,3.011 116.5,3.011 118,0.591 139,0.581 125.7,23.191 103.5,23.201 101.899,28.541 128.7,28.541 119.399,44.081 
	97.2,44.091 95.399,49.941 122.2,49.941 110.299,70.221 "/>
<linearGradient id="XMLID_15_" gradientUnits="userSpaceOnUse" x1="145.6294" y1="6.248" x2="144.8032" y2="72.3638">
	<stop  offset="0" style="stop-color:#FFFFFF"/>
	<stop  offset="0.4101" style="stop-color:#ED1C24"/>
	<stop  offset="0.7191" style="stop-color:#B5B5B5"/>
	<stop  offset="1" style="stop-color:#000000"/>
</linearGradient>
<polyline fill-rule="evenodd" clip-rule="evenodd" fill="url(#XMLID_15_)" points="146.299,70.221 123.799,70.221 138.1,23.191 
	132.2,23.191 144.2,3.011 166.7,3.001 146.299,70.221 "/>
<linearGradient id="XMLID_16_" gradientUnits="userSpaceOnUse" x1="194.2319" y1="6.8555" x2="193.4058" y2="72.9712">
	<stop  offset="0" style="stop-color:#FFFFFF"/>
	<stop  offset="0.4101" style="stop-color:#ED1C24"/>
	<stop  offset="0.7191" style="stop-color:#B5B5B5"/>
	<stop  offset="1" style="stop-color:#000000"/>
</linearGradient>
<path fill-rule="evenodd" clip-rule="evenodd" fill="url(#XMLID_16_)" d="M185.6,50.131c4.4-0.19,8.9-0.87,13.4-3.95
	c5.1-3.86,6.7-8.24,7.299-12.51c0.1-2.39,0.1-4.77-2.4-7.331c-3.299-2.789-6.7-3.029-10.1-3.159L185.6,50.131 M156.799,70.221
	l14.301-47.03h-5.801L177.2,3.001c9.5,0.11,18.9-0.391,28.3,0.64c3.799,0.51,7.6,1.489,11.299,2.989
	c2.1,0.871,4.1,2.011,6.099,3.501c5.301,4.39,7.001,9.28,7.602,14.13c0.399,4.53-0.201,8.93-1.9,13.52c-1,2.81-2.6,5.88-4.401,8.73
	c-1.099,1.67-2.4,3.24-3.699,4.8c-1.5,1.64-3,3.27-4.601,4.76c-1.6,1.48-3.399,2.8-5.2,4.13c-2.3,1.47-4.599,2.94-7,4.15
	c-2.4,1.21-4.9,2.17-7.5,3.13c-7.699,2.571-15.5,2.65-23.3,2.731L156.799,70.221z"/>
<linearGradient id="XMLID_17_" gradientUnits="userSpaceOnUse" x1="261.4409" y1="7.6953" x2="260.6147" y2="73.811">
	<stop  offset="0" style="stop-color:#FFFFFF"/>
	<stop  offset="0.4101" style="stop-color:#ED1C24"/>
	<stop  offset="0.7191" style="stop-color:#B5B5B5"/>
	<stop  offset="1" style="stop-color:#000000"/>
</linearGradient>
<polyline fill-rule="evenodd" clip-rule="evenodd" fill="url(#XMLID_17_)" points="252.899,70.201 229.7,70.211 239.1,39.521 
	228.2,2.991 253.799,2.991 256.799,18.431 269.399,2.991 294.799,2.981 262.2,39.521 252.899,70.201 "/>
<linearGradient id="XMLID_18_" gradientUnits="userSpaceOnUse" x1="301.1611" y1="8.1919" x2="300.335" y2="74.3076">
	<stop  offset="0" style="stop-color:#FFFFFF"/>
	<stop  offset="0.4101" style="stop-color:#ED1C24"/>
	<stop  offset="0.7191" style="stop-color:#B5B5B5"/>
	<stop  offset="1" style="stop-color:#000000"/>
</linearGradient>
<polyline fill-rule="evenodd" clip-rule="evenodd" fill="url(#XMLID_18_)" points="299.399,31.041 291.1,31.041 296.501,2.981 
	311.001,2.981 299.399,31.041 "/>
<linearGradient id="XMLID_19_" gradientUnits="userSpaceOnUse" x1="331.1704" y1="8.5669" x2="330.3442" y2="74.6826">
	<stop  offset="0" style="stop-color:#FFFFFF"/>
	<stop  offset="0.4101" style="stop-color:#ED1C24"/>
	<stop  offset="0.7191" style="stop-color:#B5B5B5"/>
	<stop  offset="1" style="stop-color:#000000"/>
</linearGradient>
<path fill-rule="evenodd" clip-rule="evenodd" fill="url(#XMLID_19_)" d="M294.7,65.451l11.599-19.48c6.301,3.93,12.6,6.28,19,5.889
	c1.701-0.27,3.5-0.44,5.201-2.659c0.6-1.141,1-2.46-0.5-3.571c-5-2.739-10.201-3.079-15.301-5.679c-2.099-1.08-4.4-2.35-6.599-4.98
	c-3.701-4.971-2.6-10.261-0.301-15.611c1.301-2.869,3.5-5.809,6.5-8.539c1.4-1.25,2.801-2.391,4.4-3.401
	c5-3.17,10.199-4.76,15.5-5.32C338.1,1.8,342.1,2.22,346,2.98l1.6-2.929L367,2.97l-12.301,20.69c-6.9-2.96-13.699-6.06-20.8-3.459
	c-1,0.409-2.6,1.6-2.6,2.969c-0.1,0.651,0.201,1.43,1.099,2.04c0.602,0.35,1.202,0.601,1.801,0.781
	c5.401,1.73,10.801,2.5,16.401,6.57c1.199,0.99,2.699,2.52,3.5,3.87c2.9,4.969,1.799,10.379-0.5,15.589
	c-1,2.221-2.4,4.38-4.201,6.451c-2,2.3-4.1,4.15-6.398,5.71c-2.702,1.82-5.602,3.23-8.5,4.31c-2.401,0.77-4.901,1.54-7.401,1.97
	c-9,1.37-18.301,0.54-27.4-3.021C298,66.801,296.299,66.141,294.7,65.451"/>
<linearGradient id="XMLID_20_" gradientUnits="userSpaceOnUse" x1="433.1055" y1="9.8403" x2="432.2793" y2="75.9561">
	<stop  offset="0" style="stop-color:#FFFFFF"/>
	<stop  offset="0.4101" style="stop-color:#ED1C24"/>
	<stop  offset="0.7191" style="stop-color:#B5B5B5"/>
	<stop  offset="1" style="stop-color:#000000"/>
</linearGradient>
<path fill-rule="evenodd" clip-rule="evenodd" fill="url(#XMLID_20_)" d="M396.7,65.441l11.599-19.48
	c6.302,3.93,12.601,6.27,18.901,5.89c1.699-0.28,3.599-0.44,5.3-2.67c0.601-1.13,1-2.46-0.601-3.571
	c-4.899-2.74-10.101-3.07-15.299-5.68c-2.101-1.08-4.302-2.35-6.5-4.98c-3.701-4.96-2.601-10.26-0.401-15.6
	c1.401-2.87,3.5-5.81,6.5-8.55c1.401-1.25,2.901-2.381,4.5-3.391c4.9-3.18,10.199-4.76,15.5-5.33c3.901-0.29,7.801,0.13,11.801,0.88
	l1.601-2.93l19.299,2.93l-12.2,20.69c-7-2.96-13.699-6.06-20.9-3.46c-0.899,0.41-2.5,1.59-2.6,2.96c0,0.65,0.2,1.43,1.2,2.04
	c0.601,0.35,1.201,0.6,1.8,0.78c5.401,1.74,10.801,2.51,16.301,6.581c1.299,0.989,2.799,2.51,3.501,3.86
	c3,4.97,1.898,10.38-0.4,15.59c-1.1,2.23-2.4,4.39-4.201,6.46c-2,2.3-4.199,4.14-6.398,5.7c-2.801,1.83-5.602,3.24-8.5,4.32
	c-2.5,0.77-4.9,1.53-7.5,1.97c-8.9,1.36-18.202,0.53-27.4-3.02c-1.6-0.64-3.301-1.301-4.9-1.991"/>
<linearGradient id="XMLID_21_" gradientUnits="userSpaceOnUse" x1="477.877" y1="10.3999" x2="477.0508" y2="76.5156">
	<stop  offset="0" style="stop-color:#FFFFFF"/>
	<stop  offset="0.4101" style="stop-color:#ED1C24"/>
	<stop  offset="0.7191" style="stop-color:#B5B5B5"/>
	<stop  offset="1" style="stop-color:#000000"/>
</linearGradient>
<polyline fill-rule="evenodd" clip-rule="evenodd" fill="url(#XMLID_21_)" points="478.601,70.171 456.101,70.171 470.299,23.141 
	464.5,23.141 476.5,2.961 499,2.951 478.601,70.171 "/>
<linearGradient id="XMLID_22_" gradientUnits="userSpaceOnUse" x1="533.2646" y1="11.0923" x2="532.4385" y2="77.208">
	<stop  offset="0" style="stop-color:#FFFFFF"/>
	<stop  offset="0.4101" style="stop-color:#ED1C24"/>
	<stop  offset="0.7191" style="stop-color:#B5B5B5"/>
	<stop  offset="1" style="stop-color:#000000"/>
</linearGradient>
<path fill-rule="evenodd" clip-rule="evenodd" fill="url(#XMLID_22_)" d="M573.899,28.171c-2,6.03-3.699,11.98-7.699,18.09
	c-0.801,1.19-1.6,2.35-2.401,3.51c-1.6,2.05-3.198,4.1-5.1,5.92c-1.801,1.82-3.9,3.4-5.9,4.99c-2.4,1.55-4.799,3.09-7.199,4.371
	c-2.5,1.279-5.201,2.299-7.802,3.319c-2.599,0.77-5.099,1.54-7.698,1.99c-2.601,0.45-5.302,0.58-8,0.711
	c-6.101-0.051-12.302-1.06-18.802-4.981c-1.198-0.789-2.299-1.73-3.5-2.67c-7.5-7.17-8.6-14.85-7.4-22.67
	c0.801-4.61,2.702-9.59,5.702-14.2c1.198-1.75,2.399-3.49,3.799-5.111c1.3-1.609,2.899-3.1,4.399-4.589
	c2.302-2.09,4.701-4,7.302-5.7c2.6-1.7,5.299-3.19,8.1-4.45c5.099-2.301,10.5-3.75,15.8-4.45c3-0.311,6-0.38,9.101-0.2
	c2,0.15,4.1,0.6,6.1,1.1l2.699-1.82l14.201,9.38l-21.701,15.35c-5.199-4.17-10.601-4.61-16.101-3.26
	c-2.599,0.76-5.198,1.91-7.599,3.64c-1.1,0.84-2.2,1.68-3.1,2.66c-1.5,1.59-2.802,3.44-3.601,5.16c-1.8,4.12-2.601,8.25,1,12.7
	c4.5,4.38,9.399,4.24,14.199,3.6c3.401-0.48,7.1-2.43,10.501-5.53h-13.6l9.799-16.85L573.899,28.171"/>
<linearGradient id="XMLID_23_" gradientUnits="userSpaceOnUse" x1="609.8057" y1="12.0483" x2="608.9795" y2="78.1641">
	<stop  offset="0" style="stop-color:#FFFFFF"/>
	<stop  offset="0.4101" style="stop-color:#ED1C24"/>
	<stop  offset="0.7191" style="stop-color:#B5B5B5"/>
	<stop  offset="1" style="stop-color:#000000"/>
</linearGradient>
<polyline fill-rule="evenodd" clip-rule="evenodd" fill="url(#XMLID_23_)" points="631.5,70.151 611.699,70.151 599.299,37.351 
	589.299,70.151 567.101,70.161 581.398,23.131 575.601,23.131 587.5,2.941 611.299,2.941 621.399,29.881 629.601,2.931 
	651.899,2.931 631.5,70.151 "/>
<linearGradient id="XMLID_24_" gradientUnits="userSpaceOnUse" x1="675.2666" y1="12.8667" x2="674.4404" y2="78.9824">
	<stop  offset="0" style="stop-color:#FFFFFF"/>
	<stop  offset="0.4101" style="stop-color:#ED1C24"/>
	<stop  offset="0.7191" style="stop-color:#B5B5B5"/>
	<stop  offset="1" style="stop-color:#000000"/>
</linearGradient>
<path fill-rule="evenodd" clip-rule="evenodd" fill="url(#XMLID_24_)" d="M638.899,65.401l11.601-19.48
	c6.299,3.93,12.601,6.27,19.001,5.89c1.699-0.27,3.499-0.44,5.199-2.67c0.599-1.13,1-2.45-0.5-3.56c-5-2.741-10.2-3.08-15.301-5.69
	c-2.101-1.07-4.399-2.34-6.601-4.971c-3.698-4.969-2.599-10.26-0.299-15.61c1.299-2.87,3.399-5.81,6.399-8.54
	c1.399-1.25,2.899-2.39,4.5-3.4c5-3.17,10.201-4.76,15.5-5.32c3.9-0.3,7.9,0.12,11.801,0.88L691.8,0l19.302,2.92l-12.202,20.69
	c-6.898-2.96-13.699-6.06-20.898-3.46c-0.9,0.41-2.5,1.6-2.602,2.97c0,0.65,0.201,1.43,1.201,2.04c0.6,0.34,1.198,0.6,1.799,0.78
	c5.4,1.73,10.801,2.5,16.301,6.571c1.301,0.989,2.801,2.51,3.6,3.869c2.9,4.971,1.802,10.381-0.5,15.58
	c-1.1,2.23-2.4,4.391-4.199,6.46c-2,2.301-4.201,4.151-6.4,5.71c-2.801,1.821-5.6,3.231-8.5,4.31c-2.5,0.77-4.901,1.54-7.401,1.971
	c-9,1.359-18.298,0.529-27.5-3.021C642.2,66.75,640.501,66.09,638.899,65.401"/>
<path fill-rule="evenodd" clip-rule="evenodd" d="M14.1,20.021h4.5L4.299,67.051h16L26,48.481h5.6l4.699,18.57l19.901-0.01
	l-7.5-19.4c3.099-1.56,6.3-2.801,9.599-5.331c1.1-0.81,2.1-1.689,3.1-2.62c0.901-0.94,1.901-1.929,2.701-2.98
	c1.1-1.46,2.2-2.929,3.001-4.52c2.799-5.489,4.4-11.199,2-17.02c-0.702-1.54-1.6-3.04-3.6-4.62c-6.4-4.66-13.201-4.07-19.9-4.34
	H22.3L14.1,20.021 M11.5,21.481l9.899-16.72c9.4,0.02,18.8-0.1,28.3,0.079c5.5,0.381,11,0.33,16.7,4.56
	c4.5,3.81,5.4,8.02,5.301,12.201c-0.301,5.25-2.2,10.6-6.5,16.029c-1.401,1.581-2.801,3.171-4.401,4.531
	c-1.599,1.36-3.299,2.51-5.099,3.65c-1.699,0.91-3.401,1.74-5.199,2.56l7.898,20.13H35.1l-4.599-18.57h-3.5l-5.602,18.57l-19,0.01
	L16.6,21.481H11.5z"/>
<path fill-rule="evenodd" clip-rule="evenodd" d="M31,36.541h8.1c3.299-0.34,6.4-0.29,10-3.89c2.099-2.66,3-5.48,1.699-8.4
	c-0.9-1.82-2.699-2.61-4.199-3.01c-1.301-0.37-2.701-0.47-4.1-0.47h-6.701L31,36.541 M29,38.001l5.7-18.69
	c3.4,0.05,6.8-0.15,10.199,0.13c2.201,0.38,4.301,0.51,6.601,3.24c2.2,2.99,1.6,6.24-0.3,9.51c-0.699,1.29-2.301,2.85-3.699,3.63
	c-2.702,1.599-5.602,2.01-8.401,2.18H29z"/>
<path fill-rule="evenodd" clip-rule="evenodd" d="M80.7,20.011h4.5l-14.301,47.03l37.601-0.01l8.1-13.901H91.1l3.699-12.229H117.6
	l5.4-9.17H97.6l3.599-11.72l22.699-0.01l9.5-16.23l-13.599,0.01l-1.5,2.42h-29.5L80.7,20.011 M78.2,21.471L88,4.75l29.5-0.009
	l1.5-2.42h16.899L124.7,21.461h-22.5l-2.6,8.82l26-0.011l-7.201,12.081l-22.5,0.009L93.1,51.671h26l-9.801,16.82l-40.4,0.01
	l14.3-47.03H78.2z"/>
<path fill-rule="evenodd" clip-rule="evenodd" d="M137.799,20.001h4.6L128.1,67.031h15.901l18.398-60.84H146L137.799,20.001
	 M135.299,21.461l9.901-16.72h19.199L145,68.491h-18.9l14.299-47.03H135.299z"/>
<path fill-rule="evenodd" clip-rule="evenodd" d="M170.899,20.001h4.5L161.1,67.031c10.4-0.16,20.6,0.63,31-1.67
	c1.1-0.26,2.1-0.58,3.1-0.9c2.4-0.91,4.801-1.82,7.1-2.96c2.301-1.15,4.4-2.54,6.599-3.93c1.701-1.25,3.301-2.49,4.901-3.88
	c1.5-1.39,2.9-2.93,4.3-4.46c2.6-2.99,4.5-6.11,6.1-9.34c3.199-6.82,4.6-13.74,1.6-20.85c-0.6-1.54-1.6-3.08-2.901-4.55
	c-3.898-4.09-8.199-5.39-12.398-6.66c-6.102-1.55-12.301-1.59-18.5-1.641H179.1L170.899,20.001 M168.299,21.451l9.901-16.72
	c9,0.1,18.099-0.371,27.099,0.64c3.701,0.49,7.301,1.42,10.901,2.86c1.9,0.81,3.8,1.87,5.599,3.26c4.801,4.02,6.4,8.5,7,12.95
	c0.599,5.27-0.7,10.76-3.2,16.08c-0.9,1.721-1.801,3.431-2.9,5.04c-1,1.61-2.301,3.11-3.5,4.621c-1.401,1.58-2.901,3.17-4.5,4.6
	c-1.5,1.429-3.301,2.71-5,3.99c-2.199,1.43-4.401,2.859-6.699,4.03c-2.401,1.179-4.901,2.11-7.301,3.039
	c-7.5,2.501-15.2,2.551-22.801,2.641h-13.699l14.199-47.03L168.299,21.451z"/>
<path fill-rule="evenodd" clip-rule="evenodd" d="M183.2,51.921c5.599-0.06,11.099-0.45,16.8-4.33c1.899-1.39,3.299-2.91,4.5-4.53
	c2.399-3.44,3.5-7.07,3.6-10.71c-0.1-2.36-0.5-4.741-3-7.261c-4.1-3.48-8.4-3.63-12.6-3.65L183.2,51.921 M181.2,53.421l10.199-33.44
	c4.5,0,8.9-0.03,13.5,3.1c1.101,0.74,2.301,2.069,3,3.29c2.701,4.67,1.801,9.48-0.399,14.51c-0.499,1.04-1.201,2.02-1.8,3.01
	c-0.699,0.92-1.401,1.84-2.199,2.66c-3.102,2.97-6.201,4.49-9.401,5.48C189.8,53.311,185.501,53.331,181.2,53.421z"/>
<path fill-rule="evenodd" clip-rule="evenodd" d="M250.5,67.011l8.799-29.09L287.6,6.171l-16.701,0.01l-16,19.56L251.2,6.181
	h-18.699l9.898,33.35l-8.299,27.49L250.5,67.011 M251.6,68.471h-19.5l8.799-28.94L230.5,4.731l21.899-0.01l3.4,17.68L270.2,4.721
	h20.699L260.6,38.651L251.6,68.471z"/>
<path fill-rule="evenodd" clip-rule="evenodd" d="M297.299,27.851l9-21.68H299.1l-4.201,21.68H297.299 M298.299,29.311H293.2
	l4.699-24.59l10.5-0.011L298.299,29.311z"/>
<path fill-rule="evenodd" clip-rule="evenodd" d="M299.299,63.901c6.702,2.72,13.401,4.08,20.1,4.01c2.4-0.09,4.801-0.19,7.102-0.59
	c2.398-0.4,4.699-1.11,6.898-1.83c2.701-0.99,5.301-2.28,7.801-3.95c2-1.4,4-3.06,5.8-5.14c4.001-4.81,6.1-9.94,5.501-15.05
	c-0.202-1.73-0.901-3.51-2.801-5.3c-3.199-2.9-6.5-4.03-9.9-5.09c-2.6-0.79-5.1-1.43-7.799-2.371
	c-1.301-0.489-3.301-2.089-3.602-3.509c-0.699-1.891-0.398-3.871,1.5-5.92C333.8,15.59,338.2,15.86,342.4,16.25
	c3.701,0.4,7.4,1.9,10.999,3.37l8.4-14.2l-12.5-1.88l-1.6,3.05c-7.5-1.69-14.9-2.32-22.699,1.12c-1.601,0.68-3.101,1.48-4.5,2.4
	c-2.301,1.451-4.301,3.051-6.4,5.461c-2.201,2.599-3.701,5.15-4.4,7.809c-0.901,3.75-2.1,7.511,2.999,11.671
	c6,4.36,12.199,4.349,18.401,7.53c1.4,0.64,3.099,2.689,3.099,4.319c0.1,1.75-0.301,3.541-2.099,5.421
	c-2.6,2.3-5.301,2.73-8.001,2.79c-5.599-0.01-11.099-1.72-16.701-4.78L299.299,63.901 M297.2,64.621l9.699-16.26
	c6.201,3.61,12.3,5.6,18.601,5.23c2-0.3,4-0.59,6.099-2.88c1.299-1.89,1.901-3.86,0.001-5.97c-2.801-2.27-5.901-2.7-8.801-3.67
	c-4.199-1.31-8.2-2.26-12.6-6.28c-4.199-4.63-2.9-9.661-0.801-14.691c1.201-2.68,3.201-5.439,6-7.99
	c1.301-1.19,2.801-2.27,4.301-3.23c4.699-3.009,9.699-4.52,14.599-5.059c4.202-0.31,8.501,0.24,12.6,1.11l1.701-2.99l15.6,2.36
	l-10.2,17.16c-7-2.94-13.701-5.6-20.9-2.83c-1,0.49-2.1,1.16-3,2.56c-0.901,1.73-1.1,3.72,1.4,5.5c0.699,0.43,1.5,0.74,2.299,0.96
	c5.099,1.69,10.4,2.381,15.701,6.29c1.5,1.141,3.1,3.041,3.699,4.591c1.801,4.11,0.801,8.5-1.1,12.75c-1,2.09-2.3,4.12-4,6.07
	c-1.9,2.17-3.9,3.92-6.099,5.39c-2.602,1.74-5.301,3.09-8.102,4.12c-2.298,0.74-4.699,1.479-7.099,1.9
	c-9.2,1.41-18.7,0.37-28.1-3.53c-0.5-0.2-1-0.41-1.5-0.61L297.2,64.621z"/>
<path fill-rule="evenodd" clip-rule="evenodd" d="M401.299,63.891c6.702,2.71,13.401,4.07,20.101,4.01
	c2.399-0.1,4.801-0.19,7.102-0.59c2.298-0.41,4.6-1.12,6.898-1.83c2.701-0.99,5.301-2.28,7.801-3.96c2-1.4,4-3.06,5.8-5.15
	c4.001-4.8,6-9.93,5.501-15.04c-0.301-1.72-1-3.5-2.801-5.29c-3.199-2.9-6.599-4.04-9.9-5.09c-2.6-0.79-5.1-1.43-7.799-2.38
	c-1.4-0.49-3.301-2.09-3.701-3.511c-0.6-1.89-0.4-3.87,1.5-5.92c4-3.56,8.302-3.3,12.601-2.9c3.601,0.4,7.399,1.89,10.999,3.36
	l8.4-14.19l-12.5-1.89l-1.6,3.06c-7.5-1.69-15-2.33-22.8,1.12c-1.5,0.67-3,1.47-4.5,2.39c-2.199,1.46-4.199,3.05-6.398,5.46
	c-2.102,2.6-3.602,5.16-4.4,7.82c-0.9,3.74-2.101,7.509,3.1,11.66c6,4.36,12.199,4.35,18.4,7.53c1.299,0.64,3,2.7,3.099,4.32
	c0.1,1.75-0.3,3.55-2.199,5.43c-2.5,2.3-5.301,2.73-8,2.79c-5.5-0.01-11.102-1.72-16.602-4.78L401.299,63.891 M399.2,64.601
	l9.699-16.25c6.101,3.61,12.3,5.6,18.5,5.22c1.999-0.29,3.999-0.58,6.101-2.87c1.299-1.9,2-3.87,0.101-5.98
	c-2.9-2.27-5.9-2.701-8.9-3.661c-4.1-1.31-8.2-2.259-12.501-6.279c-4.199-4.631-3-9.661-0.9-14.701c1.302-2.68,3.302-5.43,6.1-7.99
	c1.301-1.19,2.702-2.269,4.202-3.22c4.698-3.02,9.698-4.52,14.698-5.06c4.201-0.32,8.4,0.23,12.6,1.101L450.5,1.93l15.6,2.36
	L456,21.44c-7-2.929-13.801-5.59-20.9-2.82c-1,0.49-2.201,1.161-3,2.561c-0.9,1.73-1.201,3.71,1.399,5.5c0.7,0.43,1.5,0.74,2.2,0.96
	c5.199,1.69,10.4,2.38,15.8,6.28c1.5,1.15,3.101,3.05,3.7,4.6c1.699,4.11,0.699,8.5-1.2,12.75c-1,2.09-2.301,4.11-3.899,6.06
	c-1.9,2.17-4,3.92-6.101,5.4c-2.601,1.74-5.3,3.09-8.101,4.12c-2.399,0.74-4.699,1.471-7.199,1.891c-9.1,1.419-18.7,0.369-28-3.531
	C400.199,65.011,399.699,64.811,399.2,64.601L399.2,64.601z"/>
<path fill-rule="evenodd" clip-rule="evenodd" d="M470.101,19.951h4.5l-14.201,47.03H476.2l18.5-60.84l-16.401,0.01L470.101,19.951
	 M467.5,21.411L477.501,4.69H496.7l-19.401,63.75h-18.899L472.7,21.411H467.5z"/>
<path fill-rule="evenodd" clip-rule="evenodd" d="M569.5,31.361l-28.3,0.01l-6.1,10.47h16.299l-6.101,5.54
	c-3.899,3.55-8,5.72-12,6.33c-3.5,0.55-6.899,0.49-10.5-0.49c-2.198-0.73-4.399-1.68-6.599-4.13c-4.301-5.1-4.1-10.65-1.6-16.2
	c1.1-2.28,2.799-4.71,5.299-7.08c2.201-1.98,4.301-3.27,6.601-4.42c4.799-2.22,9.799-2.99,14.899-2.01c2.201,0.47,4.4,1.41,6.5,2.77
	l16.102-11.35l-8.602-5.64l-2.1,1.44c-5.1-1.55-10.299-1.68-15.4-1.19c-2.199,0.26-4.398,0.76-6.6,1.27
	c-2.799,0.75-5.6,1.73-8.299,2.93c-2.702,1.2-5.202,2.61-7.702,4.22c-2.399,1.61-4.698,3.41-6.899,5.39
	c-1.399,1.39-2.799,2.78-4.101,4.29c-1.299,1.51-2.4,3.14-3.6,4.78c-2.6,4.17-4.4,8.62-5.199,12.96
	c-0.801,5.77-0.5,11.63,4.499,17.801c1.601,1.909,3.299,3.17,5.101,4.36c7.9,4.77,16.1,5.06,24.4,3.81
	c2.5-0.42,4.898-1.14,7.199-1.861c2.5-0.97,5-1.93,7.4-3.14c2.4-1.22,4.6-2.68,6.799-4.14c2-1.49,3.9-2.97,5.602-4.66
	c2.699-2.73,5.101-5.9,7-8.86C566.5,40.181,567.899,35.801,569.5,31.361 M571.5,29.911c-1.8,5.13-3.3,10.2-6.801,15.43
	c-0.699,1.16-1.5,2.29-2.3,3.41c-1.5,1.98-3.101,3.95-4.899,5.7c-1.701,1.75-3.701,3.29-5.701,4.82c-2.299,1.5-4.6,3-7,4.24
	c-2.5,1.25-5,2.23-7.6,3.22c-2.401,0.75-4.901,1.49-7.401,1.92c-2.5,0.44-5.099,0.56-7.698,0.69c-5.802-0.05-11.701-1-17.802-4.71
	c-1.198-0.74-2.299-1.62-3.299-2.5c-7-6.67-8-13.83-6.9-21.11c0.799-4.38,2.6-9.13,5.4-13.53c1.199-1.68,2.399-3.37,3.699-4.92
	c1.301-1.56,2.801-3,4.2-4.43c2.301-2.03,4.601-3.88,7.101-5.531c2.5-1.65,5.2-3.099,7.899-4.329
	C527.298,6.06,532.6,4.64,537.699,3.97c2.9-0.3,5.801-0.36,8.699-0.2c2.201,0.161,4.399,0.69,6.602,1.251l2.398-1.61l11.102,7.35
	L547.898,23.92c-4.199-3.01-8.399-3.76-12.799-3.45c-2.5,0.251-5.302,1.02-8,2.231c-1.4,0.649-2.601,1.489-3.9,2.33
	c-1.2,0.909-2.301,1.819-3.301,2.869c-1.601,1.73-3.101,3.75-4,5.611c-1.899,4.329-2.601,8.67,0.3,13.29
	c0.801,1.219,2.301,2.659,3.6,3.44c5,2.98,10.201,2.849,15.401,1.53c4.199-1.061,8.4-4.661,12.4-8.47h-15l7.799-13.39H571.5z"/>
<path fill-rule="evenodd" clip-rule="evenodd" d="M581.101,19.941h4.6l-14.301,47.03l15.5-0.01l12-39.47l15,39.47h15.201l18.5-60.84
	H632l-10.3,33.68l-12.6-33.671h-19.802L581.101,19.941 M578.601,21.391l9.899-16.72h21.601l11.5,30.6l9.299-30.6l18.701-0.01
	l-19.4,63.75l-17.301,0.01l-13.799-36.43l-11.1,36.43h-18.5l14.199-47.03H578.601z"/>
<path fill-rule="evenodd" clip-rule="evenodd" d="M643.5,63.851c6.7,2.72,13.399,4.08,20.101,4.009
	c2.399-0.089,4.799-0.189,7.1-0.589c2.4-0.4,4.599-1.11,6.9-1.83c2.699-0.99,5.299-2.28,7.799-3.96c2-1.4,4-3.05,5.801-5.13
	c4-4.81,6.1-9.94,5.5-15.05c-0.301-1.73-1-3.51-2.801-5.301c-3.199-2.9-6.5-4.029-9.898-5.09c-2.602-0.79-5.102-1.43-7.801-2.37
	c-1.4-0.49-3.301-2.09-3.699-3.52c-0.602-1.88-0.301-3.86,1.5-5.92c4-3.56,8.299-3.29,12.601-2.9c3.698,0.4,7.399,1.89,11,3.37
	l8.4-14.2l-12.5-1.88L691.9,6.54c-7.5-1.69-15-2.32-22.799,1.12c-1.5,0.68-3,1.48-4.5,2.39c-2.201,1.46-4.201,3.06-6.302,5.46
	c-2.198,2.61-3.698,5.16-4.5,7.82c-0.798,3.741-2.099,7.51,3.101,11.67c6,4.36,12.201,4.35,18.4,7.52c1.4,0.65,3.1,2.7,3.1,4.33
	c0.102,1.75-0.299,3.541-2.199,5.42c-2.5,2.301-5.2,2.73-8,2.79c-5.5-0.009-11.1-1.72-16.6-4.779L643.5,63.851 M641.399,64.571
	l9.701-16.26c6.198,3.61,12.299,5.6,18.6,5.23c1.9-0.3,3.9-0.59,6-2.88c1.4-1.89,2-3.86,0.099-5.97
	c-2.799-2.271-5.899-2.71-8.899-3.67c-4.101-1.311-8.199-2.26-12.5-6.28c-4.199-4.631-2.899-9.66-0.899-14.7
	c1.299-2.681,3.299-5.431,6.101-7.98c1.299-1.19,2.698-2.27,4.198-3.23c4.802-3.01,9.701-4.521,14.701-5.061
	c4.2-0.31,8.399,0.23,12.601,1.11l1.6-2.989l15.6,2.359l-10.1,17.161c-7-2.94-13.699-5.601-20.901-2.83c-1,0.49-2.099,1.16-3,2.56
	c-0.899,1.73-1.198,3.72,1.401,5.5c0.699,0.43,1.5,0.74,2.301,0.96c5.1,1.69,10.398,2.38,15.699,6.29
	c1.5,1.141,3.099,3.04,3.699,4.59c1.701,4.11,0.701,8.5-1.101,12.75c-1.099,2.09-2.299,4.12-4,6.071
	c-1.899,2.169-3.899,3.92-6.099,5.389c-2.6,1.74-5.301,3.091-8.1,4.12c-2.4,0.74-4.701,1.48-7.101,1.89
	c-9.201,1.42-18.701,0.38-28.101-3.53C642.399,64.971,641.899,64.771,641.399,64.571z"/>
<g>
	<path fill="#FFFFFF" stroke="#000000" d="M551.524,74.051c-0.7-1.399-1.2-2.87-1.5-3.91c-0.299-1.029-0.299-1.63-0.2-2.239
		c0.2-1.15,1.301-2.9,3.2-4.62c0.9-0.841,2-1.561,3-2.04c1-0.471,1.9-0.71,2.601-0.801c0.699-0.079,1.3-0.02,1.699,0.11
		c1.301,0.46,1.399,0.99,1.601,1.67c0.1,0.44,0.1,0.98-0.101,1.75c-0.101,0.771-0.5,1.78-1.199,2.79c-0.7,1-1.7,2-3.2,3.24
		C555.824,71.242,553.726,72.731,551.524,74.051 M551.824,83.561c0.901,1.391,2.2,3.16,3.5,4.9c-2.399,1.55-5.099,2.8-7.5,3.57
		c-2.399,0.76-4.599,1.029-6.099,1.1s-2.401-0.07-3.201-0.28c-0.7-0.199-1.2-0.479-1.5-0.8c-1.6-1.51-1.299-2.88-0.7-4.55
		c0.301-0.71,0.801-1.511,1.599-2.531c0.901-1.02,2.102-2.26,3.801-3.609c1.701-1.351,3.801-2.8,6.101-4.069
		c0.5,0.949,1.099,1.889,1.7,2.88C550.125,81.15,550.824,82.17,551.824,83.561z M553.925,78.591c-0.699-1.229-1.3-2.31-1.898-3.411
		c3.498-1.949,6.798-4.109,9-5.71c2.099-1.609,3.199-2.67,3.798-3.5c0.702-0.829,1.101-1.429,1.401-2.01
		c0.5-1.43,1-2.549-0.201-3.811c-0.299-0.318-0.799-0.6-1.7-0.85c-1-0.25-2.3-0.46-3.899-0.31c-1.701,0.149-3.699,0.659-5.4,1.27
		c-1.7,0.601-3.1,1.3-4.299,2.031c-1.201,0.739-2.201,1.5-3.101,2.279c-0.801,0.78-1.401,1.579-1.801,2.39
		c-0.399,0.82-0.601,1.661-0.699,2.3c-0.2,0.631-0.2,1.071,0.199,2.22c0.399,1.15,1.101,3.011,2,4.79
		c-3.101,1.71-6.199,3.5-8.3,4.801c-2.1,1.29-3.2,2.07-4.2,2.909c-1.899,1.551-3.3,3.42-3.8,5.15c-0.399,1.4-0.6,2.61,0,3.77
		c0.3,0.5,0.699,0.951,1.199,1.301s1.101,0.61,1.901,0.82c0.899,0.21,2,0.391,4.199,0.25c2.101-0.13,5.301-0.56,8.5-1.52
		c3.099-0.95,6.301-2.431,9.301-4.281c1.599,1.83,3.298,3.59,4.5,4.67c1.199,1.07,1.798,1.461,2.199,1.7
		c1,0.531,1.399,0.42,2.099,0.19c0.301-0.14,0.801-0.379,1.201-0.68c0.4-0.31,0.799-0.68,1.1-0.979c0.301-0.45,0.5-0.71,0.6-1.09
		c0.1-0.2-0.1-0.352-0.299-0.391c-0.102-0.02-0.102-0.029-0.4-0.04c-0.201-0.011-0.6-0.02-1.201-0.261
		c-1.398-0.449-3.898-2.89-6-5.46c1.801-1.29,3.602-2.75,4.9-4.11c1.301-1.35,2.201-2.59,2.701-3.54
		c0.6-0.96,0.799-1.63,0.897-2.149c0.103-0.53,0.103-0.9,0-1.24c-0.099-0.35-0.298-0.66-0.499-0.88c-0.6-0.55-1.1-0.74-1.898-0.6
		c-0.301,0.21-0.201,1.029-0.4,1.93c-0.201,1.57-1.701,4.609-4.1,7.18c-0.801,0.8-1.602,1.57-2.5,2.28
		c-1.701-2.11-3.5-4.82-5.102-7.41L553.925,78.591z"/>
	<path fill="#FFFFFF" stroke="#000000" d="M632.824,76.841c0-0.28,0-0.63-0.5-0.979c-0.3-0.182-0.699-0.36-1.199-0.471
		c-0.599-0.11-1.301-0.161-1.7-0.161c-0.8,0.021-0.699,0.12-0.898,0.301c-0.102,0.1-0.201,0.229-0.301,0.859
		c-0.199,1.271-0.4,3.731-0.6,5.49c-0.301,0.43-0.6,0.82-1.5,1.55c-0.9,0.72-2.4,1.79-4.5,3.051c-2.201,1.26-5.001,2.72-7.501,3.75
		c-2.399,1.029-4.399,1.63-6.3,2.08c-1.799,0.44-3.5,0.72-5.299,0.65c-1.701-0.07-3.5-0.48-4.801-0.94
		c-1.301-0.45-2.199-0.95-2.801-1.52c-1.398-1.21-2-2.781-1.898-4.312c0-0.799,0.199-1.59,0.599-2.67c0.401-1.08,1.101-2.449,2-4
		c0.901-1.55,2.101-3.279,3.601-5.02c3-3.48,6.899-6.61,10.399-8.54c1.7-0.98,3.5-1.771,5.3-2.43c1.801-0.66,3.7-1.19,5.7-1.54
		c2.101-0.36,4.399-0.561,6.699-0.471c2.301,0.091,4.601,0.45,6.399,0.98c1.701,0.52,2.901,1.2,3.5,1.56
		c1.101,0.59,0.801,0.41,1,0.44c0.401-0.12,0.701-1.37,0.701-2.28c-0.101-0.78-0.4-1.83-2.3-2.78
		c-0.901-0.42-2.101-0.79-3.601-1.029c-1.399-0.24-3.1-0.34-4.899-0.2c-1.901,0.15-3.801,0.55-5.801,1.07
		c-2,0.52-3.899,1.149-6.199,2.051c-2.2,0.889-4.7,2.05-7.2,3.34c-2.5,1.299-4.9,2.73-7.5,4.6c-2.699,1.881-5.5,4.181-7.601,6.33
		c-2.099,2.15-3.5,4.141-4.5,5.95c-1,1.8-1.699,3.42-2,4.82c-0.3,1.399-0.399,2.579-0.099,3.609c0.199,1.03,0.599,1.91,1.199,2.62
		c0.6,0.721,1.399,1.28,2.6,1.78c1.101,0.5,2.701,0.94,5,1.12c2.201,0.189,5.101,0.109,8.4-0.551
		c6.5-1.31,14.899-5.119,22.801-10.32l-0.101,5.98c0,1.359,0,2.72,0.101,3.77c0.099,1.06,0.199,1.8,0.399,2.37
		c0.3,1.22,1.101,1.51,1.699,1.61c0.399,0.051,0.7,0.03,0.899,0.011c0.901-0.061,0.5-0.651,0.601-1.421
		c-0.101-0.739,0-1.919,0.101-3.119L632.824,76.841"/>
	<path fill="#FFFFFF" stroke="#000000" d="M651.925,78.721c-1.199,1.09-2.4,2.19-3.4,3.181c-3,2.85-5,5.079-6.7,7.489l-0.099-0.12
		c1-2.319,1.899-4.649,2.599-6.33c0.702-1.689,1.101-2.729,1.301-3.329c0.399-1.142,0.399-0.981,0.399-1.411
		c0-0.289-0.2-0.799-1.1-1.27c-0.5-0.279-1.101-0.49-1.8-0.37c-0.399,0.08-0.7,0.311-0.8,0.561c0,0.1-0.1,0.21-0.1,0.43
		c-0.101,0.23-0.199,0.58-0.301,1.47c-0.199,0.9-0.5,2.351-0.799,3.58c-0.5,2.58-1.201,4.521-2.1,6.971
		c-0.4,1.279-0.9,2.619-1.201,3.33c-0.199,0.721-0.199,0.819-0.199,0.931c0.1,0.398,0.5,0.549,1,0.688
		c0.299,0.081,0.6,0.121,0.799,0.132c0.602,0.04,0.5-0.15,0.701-0.37c0.1-0.09,0.1-0.16,0.299-0.511
		c0.102-0.341,0.4-0.939,0.9-1.779c0.5-0.83,1.301-1.891,2.4-3.15c2.301-2.76,5.6-5.979,8.5-8.99c0,0.5,0.199,0.99,0.5,1.44
		c0.6,1.04,2,1.56,3.301,1.59c0.699,0.03,1.299-0.06,1.799-0.17c0.701-0.17,0.9-0.24,1.3-0.54c0.3-0.19,0.401-0.64-0.099-0.64
		c-0.5-0.13-0.901-0.101-1.5-0.86c-0.201-0.26-0.4-0.58-0.5-1.18c-0.201-0.59-0.301-1.46-0.4-2.351c0-0.89,0.1-1.8,0.199-2.31
		c0-0.83,0.201-0.72-0.1-0.94c-0.6-0.131-2,0.28-3.5,2.36c-0.4,0.63-0.801,1.38-1.1,2.17L651.925,78.721"/>
	<path fill="#FFFFFF" stroke="#000000" d="M677.425,90.042c-1.199,0.74-3,1.649-4.699,2.24c-1.701,0.59-3.301,0.859-4.5,0.909
		c-1.301,0.04-2.101-0.13-2.801-0.409c-1.601-0.65-2.101-1.681-2.199-2.7c-0.101-0.58,0-1.19,0.199-1.96
		c0.301-1.49,1.5-3.98,3.7-6.23c2.101-2.279,4.901-3.85,7.501-4.29c1.4-0.22,2.699-0.16,3.799,0.11c1.102,0.27,2,0.76,2.5,1.07
		c0.5,0.31,0.6,0.43,0.6,0.659c0.102,0.23,0.201,0.561,0.201,1.12c0.1,1.051,0.1,2.91-0.201,4.44c-0.299,1.45-0.498,2.28-1.5,3.22
		C679.526,88.711,678.726,89.292,677.425,90.042 M680.825,93.631c-0.1,1.14,0,1.54,0,1.78c0.1,0.34,0,0.34,0.301,0.51
		c0.199,0.03,0.299,0.04,0.799-0.1c0.5-0.141,1.299-0.431,1.9-0.69c0.6-0.26,1.098-0.49,1.301-0.64
		c0.498-0.29,0.699-0.28,0.797-0.79c0-0.471-0.5-0.101-0.797-0.46c-0.102-0.09-0.102-0.24-0.203-0.48
		c-0.098-0.25-0.199-0.59-0.297-1.32c0-0.729,0-1.85,0.098-3.35c0.199-2.99,0.902-6.979,1.5-10.53c-0.898,0.47-2.1,0.8-3.301,1.091
		c-0.398-0.771-1-1.45-1.598-1.94c-0.602-0.491-1.301-0.781-2-0.931c-0.801-0.159-1.602-0.17-2.801,0.02
		c-1.199,0.19-2.801,0.58-4.699,1.44c-1.902,0.86-4.102,2.189-5.9,3.479c-1.701,1.29-3.101,2.54-4.101,3.68
		c-1.101,1.15-1.8,2.19-2.3,3.15c-0.6,0.95-0.899,1.83-1.1,2.57c-0.201,0.74-0.201,1.35-0.101,1.89
		c0.101,0.53,0.399,1.01,0.801,1.41c0.298,0.4,0.798,0.729,1.5,1c0.699,0.26,1.599,0.46,2.599,0.55
		c1.101,0.08,2.201,0.061,3.401-0.05c2.5-0.16,6.099-1.16,9.599-3c1.801-0.92,3.402-1.99,4.902-3.22
		C680.925,90.59,680.825,92.491,680.825,93.631L680.825,93.631z"/>
	<path fill="#FFFFFF" stroke="#000000" d="M691.825,95.381c-1,3.53-2,7.03-2.699,9.271c-0.701,2.229-1,3.18-1.201,3.699
		c-0.201,0.511-0.201,0.59-0.201,0.75c0.102,0.38,0.801,0.98,1.5,1.19c0.801,0.3,1.301,0.25,1.402-0.73l6.398-20.89
		c0.4-1.34,0.9-2.64,1.602-3.78c1.199-2.1,2.398-3.68,4.799-5.279c1.201-0.73,2.701-1.48,4.201-1.96c1.5-0.48,3-0.69,4.199-0.731
		c1.1-0.04,1.801,0.11,2.4,0.34c1.5,0.591,1.9,1.571,2.199,2.571c0.1,0.58,0.201,1.21,0,2.21s-0.5,2.37-1.1,3.67
		c-0.5,1.3-1.299,2.53-2.1,3.5c-0.801,0.979-1.701,1.69-2.701,2.33c-1.1,0.63-2.299,1.18-3.799,1.45c-1.5,0.27-3.1,0.25-4.4,0.14
		s-2.102-0.33-2.801-0.56c-0.6-0.23-0.898-0.48-1.1-0.62c-0.6-0.34-0.6-0.19-1,0.21c-0.199,0.54-0.6,1.62,1.602,2.54
		c0.699,0.29,1.799,0.58,2.898,0.649c1.102,0.08,2.4-0.06,3.701-0.42c1.4-0.359,2.9-0.95,4.799-2.069c1.801-1.11,4-2.75,5.701-4.341
		c1.6-1.59,2.898-3.13,3.699-4.51s1.301-2.6,1.5-3.6s0.199-1.78,0.1-2.45c-0.199-0.67-0.5-1.23-1-1.7
		c-0.398-0.46-1-0.83-1.799-1.109c-0.9-0.29-2-0.48-3.9-0.351s-4.5,0.58-7.301,1.64c-2.699,1.07-5.5,2.74-8,4.801h-0.1
		c0.301-0.79,0.6-1.59,0.801-2.181c0.5-1.5,0.699-1.81-0.203-2.729c-0.398-0.44-1.199-0.83-1.797-1.03
		c-0.703-0.149-0.801-0.36-1.301,0.19c-0.199,0.359-0.301,1.22-0.5,2.08c-0.102,1.149-0.5,2.77-1,4.52L691.825,95.381"/>
	<path fill="#FFFFFF" stroke="#000000" d="M729.226,82.191c2.4-7.42,4.6-14.859,5.9-18.939c1.199-4.08,1.398-4.811,1.5-5.25
		c0.1-0.43,0.1-0.57,0.1-0.771c-0.1-0.42-1.4-1.26-2.502-1.649c-0.498-0.2-0.898-0.24-1.098-0.26c-0.4-0.011-0.5,0.05-0.701,0.26
		c0,0.05-0.1,0.109-0.1,0.729c-0.1,0.62-0.299,1.811-0.6,3.63c-0.301,1.83-0.9,4.301-1.801,7.99c-1,3.69-2.299,8.59-3.6,13.19
		c-1.301,4.609-2.5,8.93-3.9,13.229c0.801,0.65,1.801,0.851,2.9,0.95c1.301-2.62,2.801-5.12,4.5-7.36
		c1.701-2.25,3.701-4.239,5.1-5.63c1.5-1.39,2.4-2.18,3.301-2.729c0.801-0.54,1.5-0.84,2-0.97c0.801-0.221,0.801-0.011,1.199,0.489
		c0.201,0.29,0.4,0.74,0.5,1.891c0.102,1.149,0,2.989,0,4.819l0.102,10.83c0,0.41,0,0.82,0,1.15c0.1,0.649,0.398,1.14,0.699,1.11
		c0.299,0.1,1.5-0.311,2.5-0.9c0.6-0.34,1.199-0.74,1.5-1.021c0.9-0.68,0.9-0.779,0.699-1.149c-0.1-0.311-0.799,0.08-1.299-1.4
		c-0.201-0.45-0.301-1.02-0.4-1.97s-0.1-2.271-0.1-4.11c0.1-1.85,0.299-4.22,0.4-6c0.1-1.779,0-2.97-0.102-3.779
		c0-0.82-0.199-1.261-0.398-1.601c-0.602-0.939-1.102-0.99-1.9-1.09c-0.5-0.04-1.1,0.01-2,0.3c-0.9,0.28-2,0.811-3.4,1.8
		c-1.5,1-3.199,2.46-5.199,4.511c-2,2.06-4.102,4.699-6.102,7.479v-0.12L729.226,82.191"/>
	<path fill="#FFFFFF" stroke="#000000" d="M764.126,63.912c-0.301-0.221-0.801-0.53-1.301-0.731c-0.4-0.188-0.799-0.269-1-0.309
		c-0.4-0.04-0.6-0.051-0.699,0.079c-0.1,0.02-0.1,0.05-0.201,0.319c-0.1,0.271-0.199,0.791-0.398,1.63
		c-0.102,0.841-0.301,1.99-0.5,2.65c-0.201,1.23-0.102,1.05,0.299,1.51c0.201,0.181,0.6,0.36,0.9,0.49
		c0.4,0.121,0.801,0.201,1.1,0.23c0.4,0.041,0.301-0.02,0.4-0.079c0.1-0.03,0.1-0.09,0.199-0.221c0.102-0.13,0.201-0.34,0.4-1.189
		c0.201-0.86,0.6-2.36,0.801-3.19C764.325,64.282,764.425,64.141,764.126,63.912 M752.925,93.622c0,0.39-0.1,0.74,1,1.27
		c0.4,0.141,0.801,0.261,1.1,0.311c0.602,0.07,0.699,0.04,1-0.24c0.102-0.089,0.199-0.769,0.4-1.379c0.1-0.37,0.1-0.71,0.201-1.23
		c0.199-0.53,0.297-1.24,0.699-2.57c0.398-1.33,1-3.271,1.699-5.48c0.699-2.219,1.6-4.71,2-6.009
		c0.398-1.312,0.398-1.451,0.301-1.611c-0.102-0.17-0.301-0.369-0.5-0.569c-0.301-0.199-0.602-0.391-1.102-0.58
		c-0.598-0.19-1.301-0.379-1.799-0.46c-0.9-0.18-1,0.051-1,0.29c0.201,1.479-0.1,2.99-0.4,4.689c-0.199,0.65-0.398,1.431-0.6,2.201
		L752.925,93.622z"/>
	<path fill="#FFFFFF" stroke="#000000" d="M789.626,79.032c0.5-0.15,1.199-1.66,0.398-2.751c-0.1-0.25-0.398-0.471-0.799-0.69
		c-0.5-0.22-1.1-0.44-2.1-0.56c-1.801-0.29-5.4,0.18-8.4,1.279c-2.9,1.04-5.199,2.2-7.9,4.04c-2.699,1.86-5.1,4.29-6.199,6.391
		c-0.6,1.01-1,1.979-1.201,2.81c-0.199,0.82-0.199,1.5-0.1,2.11c0.201,0.609,0.5,1.149,0.9,1.62c0.5,0.46,1,0.85,1.9,1.159
		c0.9,0.32,2.1,0.57,3.699,0.681c1.6,0.12,3.5,0.1,5.701-0.15c2.199-0.25,4.699-0.74,6.5-1.2c1.898-0.449,3.1-0.88,4.1-1.26
		c1-0.39,1.799-0.751,2.299-1.05c0.5-0.29,0.801-0.521,1-0.73c0.4-0.41,0.801-0.891,0.1-1.02c-0.1,0-0.199,0.02-0.498,0.149
		c-0.301,0.12-0.9,0.351-1.701,0.721c-1.799,0.81-4.699,1.989-7.199,2.438c-1.301,0.251-2.602,0.36-3.801,0.371
		c-1.199,0.01-2.301-0.08-3.301-0.3c-1.1-0.22-2-0.581-2.699-0.99c-0.699-0.411-1.199-0.881-1.5-1.4
		c-0.301-0.521-0.5-1.101-0.5-1.88c0-1.601,0.701-3.949,2.5-6.061c2.701-3.29,7.301-5.32,11.301-5.189
		c1.1,0.011,2.199,0.14,3.199,0.329c1.1,0.19,2,0.44,2.6,0.641c0.701,0.2,1.102,0.359,1.301,0.439c0.301,0.08,0.4,0.07,0.4,0.051"/>
	<path fill="#FFFFFF" stroke="#000000" d="M815.425,79.141c0.301-0.12,1-1.15,1-1.72c0.1-0.42,0-0.981-0.5-1.491
		c-0.299-0.229-0.6-0.429-1.199-0.609c-0.5-0.171-1.301-0.33-2.301-0.399c-2-0.15-5.5,0.18-8.6,0.97
		c-1.5,0.38-2.799,0.84-3.801,1.31c-1,0.461-1.799,0.931-2.398,1.43c-1.701,1.32-2.5,2.761-2.6,4.241c0.1,0.67,0.199,1.3,1.5,1.92
		c0.6,0.25,1.398,0.46,2.1,0.6c0.699,0.13,1.398,0.19,2.4,0.261c1.1,0.06,2.5,0.13,3.699,0.229c1.199,0.089,2.1,0.21,2.699,0.36
		c0.701,0.14,1.201,0.319,1.5,0.51c1.4,0.979,0.9,1.61,0.602,2.689c-0.102,0.511-0.4,1.101-0.701,1.58
		c-0.799,1.12-1.699,1.61-2.799,1.971c-0.602,0.18-1.201,0.29-2.102,0.33c-1.699,0.109-4.6-0.25-7.199-1.261
		c-1.199-0.489-2.4-1.1-3-1.409c-1.1-0.561-0.6-0.311-0.801-0.33c-0.5,0.449-1.299,2.18-0.398,3.46c0.299,0.279,0.699,0.55,1.1,0.75
		c0.5,0.189,1,0.31,1.9,0.42c1.699,0.25,5.1,0.279,8-0.28c1.398-0.27,2.699-0.65,3.898-1.08c1.102-0.42,2-0.9,2.9-1.43
		c1.6-1.03,2.801-2.38,3.301-3.641c0.5-1.1,0.799-2.02,0.4-2.88c-0.201-0.38-0.602-0.75-1-1.04c-0.4-0.279-0.801-0.479-1.5-0.689
		c-1.4-0.42-4.301-0.79-6.801-1.05c-1.199-0.131-2.1-0.271-2.699-0.431c-0.701-0.149-1.201-0.33-1.5-0.49
		c-1.301-0.729-1-1.14-0.9-1.829c0.199-0.54,0.5-1.351,1.6-2.101c1.301-0.729,2.5-1.04,3.6-1.18c2.201-0.28,4.6-0.25,7.301,0.63
		c0.799,0.31,1.6,0.759,2.1,1.05c0.699,0.44,0.699,0.57,1.1,0.66C815.325,79.191,815.425,79.18,815.425,79.141"/>
</g>
</svg>
